<svg width="17" height="21" viewBox="0 0 17 21" fill="none" xmlns="http://www.w3.org/2000/svg">
<path d="M12.7857 7.33333V4.16667C12.7857 2.41777 11.3467 1 9.57143 1H7.42857C5.65337 1 4.21429 2.41777 4.21429 4.16667V7.33333M12.7857 7.33333H4.21429M12.7857 7.33333C14.561 7.33333 16 8.75105 16 10.5V16.8333C16 18.5823 14.561 20 12.7857 20H4.21429C2.43909 20 1 18.5823 1 16.8333V10.5C1 8.75105 2.43909 7.33333 4.21429 7.33333M8.5 12.6111V15.7778M9.57143 12.6111C9.57143 13.1941 9.09175 13.6667 8.5 13.6667C7.90825 13.6667 7.42857 13.1941 7.42857 12.6111C7.42857 12.0281 7.90825 11.5556 8.5 11.5556C9.09175 11.5556 9.57143 12.0281 9.57143 12.6111Z" stroke="#00B4D8" stroke-width="2" stroke-linecap="round" stroke-linejoin="round"/>
</svg>
