<svg width="19" height="19" viewBox="0 0 19 19" fill="none" xmlns="http://www.w3.org/2000/svg">
<path fill-rule="evenodd" clip-rule="evenodd" d="M15.7344 17.1H3.26627C2.5952 17.1 2.09965 16.4378 2.35275 15.8289C3.52713 13.0131 6.28609 11.4 9.49987 11.4C12.7146 11.4 15.4736 13.0131 16.6479 15.8289C16.9011 16.4378 16.4055 17.1 15.7344 17.1ZM5.62084 5.69999C5.62084 3.60429 7.36155 1.89999 9.49987 1.89999C11.6391 1.89999 13.3789 3.60429 13.3789 5.69999C13.3789 7.79569 11.6391 9.49999 9.49987 9.49999C7.36155 9.49999 5.62084 7.79569 5.62084 5.69999ZM18.9579 16.7542C18.2529 13.5631 16.0477 11.2081 13.1452 10.1393C14.6832 8.92617 15.5802 6.96439 15.2505 4.81644C14.8684 2.32459 12.7524 0.330578 10.1981 0.039878C6.67206 -0.361972 3.68132 2.32654 3.68132 5.69999C3.68132 7.49549 4.53083 9.09527 5.85552 10.1393C2.95207 11.2081 0.747806 13.5631 0.0418228 16.7542C-0.214193 17.9141 0.740049 19 1.95128 19H17.0485C18.2607 19 19.2149 17.9141 18.9579 16.7542Z" fill="#00B4D8"/>
</svg>
